#Comment line ignore any data following # character 
#Hierarchical Translation and Rotation (.htr) file 
[Header]	
#Header keywords are followed by a single value 
FileType HTR		#Single word string
DataType HTRS		#Translation followed by rotation and scale data
FileVersion 1		#integer
NumSegments 84		#integer
NumFrames 2		#integer
DataFrameRate 30		#integer, data frame rate in this file
EulerRotationOrder ZYX
CalibrationUnits mm
RotationUnits Degrees
GlobalAxisofGravity Y
BoneLengthAxis Y
ScaleFactor 1.00
[SegmentNames&Hierarchy]
#CHILD	PARENT
MASTER GLOBAL
root MASTER
chest root
L_mid_tent01 root
R_mid_tent01 root
spine01 root
Bip01_Neck chest
L_humerus chest
R_humerus chest
weapon_bone chest
Bip01_Head Bip01_Neck
eye_left_bone Bip01_Head
eye_right_bone Bip01_Head
L_forearm L_humerus
L_front_hand L_forearm
L_weapon_bone L_forearm
L_front_hand01_01 L_front_hand
L_front_hand02_01 L_front_hand
L_front_hand03_01 L_front_hand
L_front_hand01_02 L_front_hand01_01
L_front_hand02_02 L_front_hand02_01
L_front_hand03_02 L_front_hand03_01
R_forearm R_humerus
R_front_hand R_forearm
R_weapon_bone R_forearm
R_front_hand01_01 R_front_hand
R_front_hand02_01 R_front_hand
R_front_hand03_01 R_front_hand
R_front_hand01_02 R_front_hand01_01
R_front_hand02_02 R_front_hand02_01
R_front_hand03_02 R_front_hand03_01
null_rope01_connect L_mid_tent01
Rope1_Seg01 null_rope01_connect
Rope1_Seg02 Rope1_Seg01
Rope1_Seg03 Rope1_Seg02
Rope1_Seg04 Rope1_Seg03
Rope1_Seg05 Rope1_Seg04
Rope1_Seg06 Rope1_Seg05
Rope1_Seg07 Rope1_Seg06
Rope1_Seg09 Rope1_Seg07
L_mid_hand01 Rope1_Seg09
L_mid_hand02 Rope1_Seg09
L_mid_hand03 Rope1_Seg09
null_rope02_connect R_mid_tent01
Rope2_Seg01 null_rope02_connect
Rope2_Seg02 Rope2_Seg01
Rope2_Seg03 Rope2_Seg02
Rope2_Seg04 Rope2_Seg03
Rope2_Seg05 Rope2_Seg04
Rope2_Seg06 Rope2_Seg05
Rope2_Seg07 Rope2_Seg06
Rope2_Seg09 Rope2_Seg07
R_mid_hand01 Rope2_Seg09
R_mid_hand02 Rope2_Seg09
R_mid_hand03 Rope2_Seg09
spine02 spine01
spine03 spine02
pelvis spine03
null_rope03_connect pelvis
null_rope04_connect pelvis
Rope3_Seg01 null_rope03_connect
Rope3_Seg02 Rope3_Seg01
Rope3_Seg03 Rope3_Seg02
Rope3_Seg04 Rope3_Seg03
Rope3_Seg05 Rope3_Seg04
Rope3_Seg06 Rope3_Seg05
Rope3_Seg07 Rope3_Seg06
Rope3_Seg08 Rope3_Seg07
Rope3_Seg09 Rope3_Seg08
R_rear_hand01 Rope3_Seg09
R_rear_hand02 Rope3_Seg09
R_rear_hand03 Rope3_Seg09
Rope4_Seg01 null_rope04_connect
Rope4_Seg02 Rope4_Seg01
Rope4_Seg03 Rope4_Seg02
Rope4_Seg04 Rope4_Seg03
Rope4_Seg05 Rope4_Seg04
Rope4_Seg06 Rope4_Seg05
Rope4_Seg07 Rope4_Seg06
Rope4_Seg08 Rope4_Seg07
Rope4_Seg09 Rope4_Seg08
L_rear_hand01 Rope4_Seg09
L_rear_hand02 Rope4_Seg09
L_rear_hand03 Rope4_Seg09
[BasePosition]
#SegmentName Tx, Ty, Tz, Rx, Ry, Rz, BoneLength
MASTER 0.000000 0.000000 0.000000 -90.000000 0.000000 0.000000 10.000000 
root 0.000000 0.000000 0.000000 0.000000 0.000000 0.000000 10.000000 
chest 0.000000 0.000000 0.000000 0.000000 0.000000 0.000000 10.000000 
L_mid_tent01 0.000000 0.000000 0.000000 0.000000 0.000000 0.000000 10.000000 
R_mid_tent01 0.000000 0.000000 0.000000 0.000000 0.000000 0.000000 10.000000 
spine01 0.000000 0.000000 0.000000 0.000000 0.000000 0.000000 10.000000 
Bip01_Neck 0.000000 0.000000 0.000000 0.000000 0.000000 0.000000 10.000000 
L_humerus 0.000000 0.000000 0.000000 0.000000 0.000000 0.000000 10.000000 
R_humerus 0.000000 0.000000 0.000000 0.000000 0.000000 0.000000 10.000000 
weapon_bone 0.000000 0.000000 0.000000 0.000000 0.000000 0.000000 10.000000 
Bip01_Head 0.000000 0.000000 0.000000 0.000000 0.000000 0.000000 10.000000 
eye_left_bone 0.000000 0.000000 0.000000 0.000000 0.000000 0.000000 10.000000 
eye_right_bone 0.000000 0.000000 0.000000 0.000000 0.000000 0.000000 10.000000 
L_forearm 0.000000 0.000000 0.000000 0.000000 0.000000 0.000000 10.000000 
L_front_hand 0.000000 0.000000 0.000000 0.000000 0.000000 0.000000 10.000000 
L_weapon_bone 0.000000 0.000000 0.000000 0.000000 0.000000 0.000000 10.000000 
L_front_hand01_01 0.000000 0.000000 0.000000 0.000000 0.000000 0.000000 10.000000 
L_front_hand02_01 0.000000 0.000000 0.000000 0.000000 0.000000 0.000000 10.000000 
L_front_hand03_01 0.000000 0.000000 0.000000 0.000000 0.000000 0.000000 10.000000 
L_front_hand01_02 0.000000 0.000000 0.000000 0.000000 0.000000 0.000000 10.000000 
L_front_hand02_02 0.000000 0.000000 0.000000 0.000000 0.000000 0.000000 10.000000 
L_front_hand03_02 0.000000 0.000000 0.000000 0.000000 0.000000 0.000000 10.000000 
R_forearm 0.000000 0.000000 0.000000 0.000000 0.000000 0.000000 10.000000 
R_front_hand 0.000000 0.000000 0.000000 0.000000 0.000000 0.000000 10.000000 
R_weapon_bone 0.000000 0.000000 0.000000 0.000000 0.000000 0.000000 10.000000 
R_front_hand01_01 0.000000 0.000000 0.000000 0.000000 0.000000 0.000000 10.000000 
R_front_hand02_01 0.000000 0.000000 0.000000 0.000000 0.000000 0.000000 10.000000 
R_front_hand03_01 0.000000 0.000000 0.000000 0.000000 0.000000 0.000000 10.000000 
R_front_hand01_02 0.000000 0.000000 0.000000 0.000000 0.000000 0.000000 10.000000 
R_front_hand02_02 0.000000 0.000000 0.000000 0.000000 0.000000 0.000000 10.000000 
R_front_hand03_02 0.000000 0.000000 0.000000 0.000000 0.000000 0.000000 10.000000 
null_rope01_connect 0.000000 0.000000 0.000000 0.000000 0.000000 0.000000 10.000000 
Rope1_Seg01 0.000000 0.000000 0.000000 0.000000 0.000000 0.000000 10.000000 
Rope1_Seg02 0.000000 0.000000 0.000000 0.000000 0.000000 0.000000 10.000000 
Rope1_Seg03 0.000000 0.000000 0.000000 0.000000 0.000000 0.000000 10.000000 
Rope1_Seg04 0.000000 0.000000 0.000000 0.000000 0.000000 0.000000 10.000000 
Rope1_Seg05 0.000000 0.000000 0.000000 0.000000 0.000000 0.000000 10.000000 
Rope1_Seg06 0.000000 0.000000 0.000000 0.000000 0.000000 0.000000 10.000000 
Rope1_Seg07 0.000000 0.000000 0.000000 0.000000 0.000000 0.000000 10.000000 
Rope1_Seg09 0.000000 0.000000 0.000000 0.000000 0.000000 0.000000 10.000000 
L_mid_hand01 0.000000 0.000000 0.000000 0.000000 0.000000 0.000000 10.000000 
L_mid_hand02 0.000000 0.000000 0.000000 0.000000 0.000000 0.000000 10.000000 
L_mid_hand03 0.000000 0.000000 0.000000 0.000000 0.000000 0.000000 10.000000 
null_rope02_connect 0.000000 0.000000 0.000000 0.000000 0.000000 0.000000 10.000000 
Rope2_Seg01 0.000000 0.000000 0.000000 0.000000 0.000000 0.000000 10.000000 
Rope2_Seg02 0.000000 0.000000 0.000000 0.000000 0.000000 0.000000 10.000000 
Rope2_Seg03 0.000000 0.000000 0.000000 0.000000 0.000000 0.000000 10.000000 
Rope2_Seg04 0.000000 0.000000 0.000000 0.000000 0.000000 0.000000 10.000000 
Rope2_Seg05 0.000000 0.000000 0.000000 0.000000 0.000000 0.000000 10.000000 
Rope2_Seg06 0.000000 0.000000 0.000000 0.000000 0.000000 0.000000 10.000000 
Rope2_Seg07 0.000000 0.000000 0.000000 0.000000 0.000000 0.000000 10.000000 
Rope2_Seg09 0.000000 0.000000 0.000000 0.000000 0.000000 0.000000 10.000000 
R_mid_hand01 0.000000 0.000000 0.000000 0.000000 0.000000 0.000000 10.000000 
R_mid_hand02 0.000000 0.000000 0.000000 0.000000 0.000000 0.000000 10.000000 
R_mid_hand03 0.000000 0.000000 0.000000 0.000000 0.000000 0.000000 10.000000 
spine02 0.000000 0.000000 0.000000 0.000000 0.000000 0.000000 10.000000 
spine03 0.000000 0.000000 0.000000 0.000000 0.000000 0.000000 10.000000 
pelvis 0.000000 0.000000 0.000000 0.000000 0.000000 0.000000 10.000000 
null_rope03_connect 0.000000 0.000000 0.000000 0.000000 0.000000 0.000000 10.000000 
null_rope04_connect 0.000000 0.000000 0.000000 0.000000 0.000000 0.000000 10.000000 
Rope3_Seg01 0.000000 0.000000 0.000000 0.000000 0.000000 0.000000 10.000000 
Rope3_Seg02 0.000000 0.000000 0.000000 0.000000 0.000000 0.000000 10.000000 
Rope3_Seg03 0.000000 0.000000 0.000000 0.000000 0.000000 0.000000 10.000000 
Rope3_Seg04 0.000000 0.000000 0.000000 0.000000 0.000000 0.000000 10.000000 
Rope3_Seg05 0.000000 0.000000 0.000000 0.000000 0.000000 0.000000 10.000000 
Rope3_Seg06 0.000000 0.000000 0.000000 0.000000 0.000000 0.000000 10.000000 
Rope3_Seg07 0.000000 0.000000 0.000000 0.000000 0.000000 0.000000 10.000000 
Rope3_Seg08 0.000000 0.000000 0.000000 0.000000 0.000000 0.000000 10.000000 
Rope3_Seg09 0.000000 0.000000 0.000000 0.000000 0.000000 0.000000 10.000000 
R_rear_hand01 0.000000 0.000000 0.000000 0.000000 0.000000 0.000000 10.000000 
R_rear_hand02 0.000000 0.000000 0.000000 0.000000 0.000000 0.000000 10.000000 
R_rear_hand03 0.000000 0.000000 0.000000 0.000000 0.000000 0.000000 10.000000 
Rope4_Seg01 0.000000 0.000000 0.000000 0.000000 0.000000 0.000000 10.000000 
Rope4_Seg02 0.000000 0.000000 0.000000 0.000000 0.000000 0.000000 10.000000 
Rope4_Seg03 0.000000 0.000000 0.000000 0.000000 0.000000 0.000000 10.000000 
Rope4_Seg04 0.000000 0.000000 0.000000 0.000000 0.000000 0.000000 10.000000 
Rope4_Seg05 0.000000 0.000000 0.000000 0.000000 0.000000 0.000000 10.000000 
Rope4_Seg06 0.000000 0.000000 0.000000 0.000000 0.000000 0.000000 10.000000 
Rope4_Seg07 0.000000 0.000000 0.000000 0.000000 0.000000 0.000000 10.000000 
Rope4_Seg08 0.000000 0.000000 0.000000 0.000000 0.000000 0.000000 10.000000 
Rope4_Seg09 0.000000 0.000000 0.000000 0.000000 0.000000 0.000000 10.000000 
L_rear_hand01 0.000000 0.000000 0.000000 0.000000 0.000000 0.000000 10.000000 
L_rear_hand02 0.000000 0.000000 0.000000 0.000000 0.000000 0.000000 10.000000 
L_rear_hand03 0.000000 0.000000 0.000000 0.000000 0.000000 0.000000 10.000000 
#Beginning of Data. Separated by tabs
#Fr	Tx	Ty	Tz	Rx	Ry	Rz	SF
[MASTER]
26 4581.794434 6392.785645 1137.726196 0.001660 0.001660 0.001660 7947.009766
27 4760.426758 6642.037598 948.486816 0.001660 0.001660 0.001660 8226.660156
[root]
26 -26.126106 -61.610714 1501.966797 -99.770729 -27.046598 -91.626961 1503.457031
27 -24.086311 -61.988831 1501.762451 -98.177315 -27.385237 -90.984657 1503.234375
[chest]
26 -84.512650 -34.090519 0.000000 -12.323991 21.570261 157.998337 91.129311
27 -84.512650 -34.090519 0.000000 -11.857614 21.567604 159.118011 91.129311
[L_mid_tent01]
26 27.298008 22.179070 -249.919159 4.723871 34.041542 82.616699 252.382019
27 27.297964 22.179062 -249.919174 4.937408 35.120552 82.816376 252.382019
[R_mid_tent01]
26 23.228794 24.509907 226.238495 156.416748 -46.767365 93.915237 228.744751
27 23.228794 24.509907 226.238495 157.651321 -46.768963 92.234467 228.744751
[spine01]
26 -0.361383 -0.195265 0.000000 0.002016 0.001202 28.392668 0.410763
27 -0.361383 -0.195265 0.000000 0.002011 0.001210 27.948427 0.410763
[Bip01_Neck]
26 165.484543 71.581718 0.000119 176.643677 -1.657967 43.431911 180.302734
27 165.484543 71.581718 0.000119 176.643677 -1.657967 43.431911 180.302734
[L_humerus]
26 -13.983130 -135.272980 -120.471481 -6.529929 65.740273 83.390648 181.680161
27 -13.983130 -135.272980 -120.471481 -6.443581 66.032394 83.489990 181.680161
[R_humerus]
26 -13.983309 -135.273102 125.287651 26.372898 -66.625198 69.322388 184.909012
27 -13.983309 -135.273102 125.287651 26.494144 -66.925789 69.195831 184.909012
[weapon_bone]
26 235.964890 -300.705902 0.000000 0.000000 -89.951546 -128.212341 382.234833
27 235.964890 -300.705902 0.000000 0.000000 -89.951546 -128.212341 382.234833
[Bip01_Head]
26 213.327423 186.042435 7.558346 5.200446 6.151311 -43.834991 283.156311
27 213.327530 186.042404 7.558403 5.200446 6.151311 -43.834991 283.156372
[eye_left_bone]
26 -24.626970 125.451866 -64.772606 0.000000 -90.000000 -99.840431 143.318359
27 -24.626970 125.451866 -64.772606 0.000000 -90.000000 -99.840431 143.318359
[eye_right_bone]
26 -24.626970 125.451866 64.327362 0.000000 -89.965736 80.156380 143.117676
27 -24.626970 125.451866 64.327362 0.000000 -89.965736 80.156380 143.117676
[L_forearm]
26 322.776093 0.000000 -0.000119 0.000417 -0.002310 -110.481018 322.776093
27 322.776093 0.000000 -0.000119 0.000415 -0.002310 -110.382835 322.776093
[L_front_hand]
26 241.149185 -0.042021 -3.300071 -178.667953 -1.835447 -27.422350 241.171753
27 241.149185 -0.042021 -3.300071 -178.667953 -1.835447 -27.422342 241.171753
[L_weapon_bone]
26 156.183838 0.000000 0.000000 0.000014 0.000007 0.000001 156.183838
27 156.183838 0.000000 0.000000 0.000014 0.000007 0.000001 156.183838
[L_front_hand01_01]
26 86.095154 20.947098 -0.655860 -0.342291 -0.495149 72.451668 88.609184
27 86.095154 20.947098 -0.655860 -0.349230 -0.490139 73.139854 88.609184
[L_front_hand02_01]
26 86.935165 -11.437475 24.513514 150.048447 -58.519783 -56.305618 91.046425
27 86.935165 -11.437475 24.513514 151.025055 -58.854893 -57.448074 91.046425
[L_front_hand03_01]
26 86.637497 -14.123976 -20.424902 -149.869934 56.734909 -57.903381 90.126129
27 86.637497 -14.123976 -20.424902 -150.781433 57.074539 -58.996449 90.126129
[L_front_hand01_02]
26 71.020905 -0.000179 0.000030 0.000322 -0.002325 -105.778519 71.020905
27 71.020905 -0.000179 0.000030 0.000323 -0.002325 -105.832039 71.020905
[L_front_hand02_02]
26 71.020927 -0.000119 0.000060 0.000322 -0.002325 -105.778519 71.020927
27 71.020927 -0.000119 0.000060 0.000323 -0.002325 -105.832039 71.020927
[L_front_hand03_02]
26 71.020905 -0.000060 0.000060 0.000322 -0.002325 -105.778519 71.020905
27 71.020905 -0.000060 0.000060 0.000323 -0.002325 -105.832039 71.020905
[R_forearm]
26 322.776428 -0.000060 0.000030 0.201486 0.067041 -109.132156 322.776428
27 322.776428 -0.000060 0.000030 0.201541 0.066874 -109.037537 322.776428
[R_front_hand]
26 238.847015 -0.006795 2.210259 -2.635298 -10.645461 -26.312506 238.857239
27 238.847015 -0.006795 2.210259 -2.635298 -10.645461 -26.312506 238.857239
[R_weapon_bone]
26 155.664093 0.002503 -0.000030 0.003487 0.001180 -90.988930 155.664078
27 155.664093 0.002503 -0.000030 0.003487 0.001180 -90.988930 155.664078
[R_front_hand01_01]
26 87.624611 14.231146 22.918642 -153.375824 -59.587143 60.286877 91.683487
27 87.624611 14.231146 22.918642 -154.293076 -59.856678 61.349689 91.683487
[R_front_hand02_01]
26 89.356956 14.367283 -19.491137 153.420517 57.944519 62.356815 92.579636
27 89.356956 14.367283 -19.491137 154.283218 58.213100 63.373543 92.579636
[R_front_hand03_01]
26 87.286232 -22.307278 -0.143439 0.155221 -0.427320 -74.955513 90.091743
27 87.286232 -22.307278 -0.143439 0.161369 -0.423469 -75.555016 90.091743
[R_front_hand01_02]
26 71.020905 0.000060 0.000119 0.002323 -0.000334 106.381714 71.020905
27 71.020905 0.000060 0.000119 0.002323 -0.000334 106.381714 71.020905
[R_front_hand02_02]
26 71.020844 -0.000030 -0.000119 0.002323 -0.000334 106.381714 71.020836
27 71.020844 -0.000030 -0.000119 0.002323 -0.000334 106.381714 71.020836
[R_front_hand03_02]
26 71.020905 0.000000 0.000030 0.002323 -0.000334 106.381714 71.020905
27 71.020905 0.000000 0.000030 0.002323 -0.000334 106.381714 71.020905
[null_rope01_connect]
26 328.732483 0.000000 -0.000238 -138.882782 -45.144478 175.103867 328.732483
27 328.732483 0.000000 -0.000238 -138.606033 -46.014133 175.167664 328.732483
[Rope1_Seg01]
26 -0.000024 0.000014 0.000095 109.128059 -11.090310 171.639420 0.000099
27 -0.000025 0.000013 0.000099 107.722794 -12.419460 174.849701 0.000103
[Rope1_Seg02]
26 139.999863 -0.000179 0.000000 2.466083 -11.914344 -2.832283 139.999863
27 139.999863 -0.000179 0.000000 3.537223 -13.698818 -4.116805 139.999863
[Rope1_Seg03]
26 139.999924 0.000060 -0.000060 2.323430 -19.207113 -6.027828 139.999924
27 139.999924 0.000060 -0.000060 3.857223 -19.567677 -8.855599 139.999924
[Rope1_Seg04]
26 139.999924 -0.000060 -0.000119 -3.190615 -34.009842 -5.917682 139.999924
27 139.999924 -0.000060 -0.000119 -6.087370 -47.400234 -4.498829 139.999924
[Rope1_Seg05]
26 139.999832 0.000119 -0.000060 -17.191601 -35.807209 1.260890 139.999832
27 139.999832 0.000119 -0.000060 -13.016235 -25.191467 -0.907849 139.999832
[Rope1_Seg06]
26 139.999954 0.000119 -0.000060 -7.937860 -9.506093 -2.869799 139.999954
27 139.999954 0.000119 -0.000060 -4.405121 -5.459202 -1.904102 139.999954
[Rope1_Seg07]
26 139.999985 0.000060 0.000000 -4.067837 -4.009110 -1.975408 139.999985
27 139.999985 0.000060 0.000000 -2.453475 -2.730386 -1.201689 139.999985
[Rope1_Seg09]
26 121.602913 0.000119 -0.000089 -89.793175 -1.359789 0.847147 121.602913
27 121.602913 0.000119 -0.000089 -89.793175 -1.359789 0.847147 121.602913
[L_mid_hand01]
26 103.859421 1.038730 8.195221 130.544373 -67.584534 -38.866943 104.187431
27 103.859421 1.038730 8.195221 130.544373 -67.584534 -38.866943 104.187431
[L_mid_hand02]
26 105.572853 -4.139662 -10.864139 -168.923172 43.409309 -73.498886 106.211075
27 105.572853 -4.139662 -10.864139 -168.923172 43.409309 -73.498886 106.211075
[L_mid_hand03]
26 104.641464 17.579376 -3.913581 -6.012627 17.808174 74.893669 106.179977
27 104.641464 17.579376 -3.913581 -6.012627 17.808174 74.893669 106.179977
[null_rope02_connect]
26 328.732849 0.000179 -0.000119 -122.412292 48.803181 25.868034 328.732849
27 328.732849 0.000179 -0.000119 -122.280182 47.302197 24.318207 328.732849
[Rope2_Seg01]
26 0.000062 0.000057 0.000000 -126.358818 37.547791 -31.898920 0.000084
27 0.000063 0.000053 0.000000 -124.647743 42.189404 -28.624912 0.000083
[Rope2_Seg02]
26 139.999741 -0.000060 -0.000119 6.513709 -23.242489 4.028187 139.999756
27 139.999741 -0.000060 -0.000119 11.904967 -32.494839 -0.098077 139.999756
[Rope2_Seg03]
26 140.000107 0.000030 0.000000 -1.487461 -49.414375 12.401291 140.000107
27 140.000107 0.000030 0.000000 4.297130 -38.314991 -0.485785 140.000107
[Rope2_Seg04]
26 139.999802 0.000000 -0.000060 -2.687781 -24.838135 11.460311 139.999802
27 139.999802 0.000000 -0.000060 -0.944776 -17.059631 11.866564 139.999802
[Rope2_Seg05]
26 139.999985 -0.000060 0.000119 10.316895 -5.667656 17.829323 139.999985
27 139.999985 -0.000060 0.000119 9.550196 -9.390508 22.907108 139.999985
[Rope2_Seg06]
26 139.999893 -0.000030 -0.000119 10.672179 -1.595213 12.026518 139.999893
27 139.999893 -0.000030 -0.000119 9.122229 -3.290452 11.837600 139.999893
[Rope2_Seg07]
26 139.999893 0.000060 -0.000060 6.274703 -0.562851 6.130572 139.999893
27 139.999893 0.000060 -0.000060 5.693459 -1.072100 5.933100 139.999893
[Rope2_Seg09]
26 121.338966 0.000089 -0.000060 33.793236 -1.359788 -0.847141 121.338966
27 121.338966 0.000089 -0.000060 33.793236 -1.359788 -0.847141 121.338966
[R_mid_hand01]
26 104.680779 11.144459 -10.335981 -16.212063 45.237247 70.462852 105.778534
27 104.680779 11.144459 -10.335981 -16.212063 45.237240 70.462852 105.778534
[R_mid_hand02]
26 104.070427 2.443552 8.231699 49.067371 -67.749794 39.286472 104.424065
27 104.070427 2.443552 8.231699 49.067371 -67.749794 39.286472 104.424065
[R_mid_hand03]
26 106.028137 -11.221827 -5.996406 -177.101105 15.551026 -76.585571 106.788818
27 106.028137 -11.221827 -5.996406 -177.101105 15.551026 -76.585571 106.788818
[spine02]
26 129.756927 0.001550 0.000119 0.463240 -4.033420 -14.447600 129.756927
27 129.756927 0.001550 0.000119 0.453442 -4.034584 -14.308815 129.756927
[spine03]
26 78.613976 0.081692 -4.898803 1.958531 3.801418 17.431726 78.766502
27 78.613968 0.081688 -4.898795 1.952898 3.804061 17.342920 78.766495
[pelvis]
26 169.435242 0.051022 0.000000 -0.067588 -0.178602 16.027838 169.435257
27 169.435242 0.051022 0.000000 -0.066491 -0.178823 15.847282 169.435257
[null_rope03_connect]
26 -1.257226 -2.466202 137.391083 -142.394608 -80.534065 -148.033859 137.418976
27 -1.257226 -2.466202 137.391083 -143.776398 -82.476318 -145.695389 137.418976
[null_rope04_connect]
26 -1.259640 -2.480268 -137.844437 -142.394608 -80.534065 -148.033859 137.872513
27 -1.259640 -2.480268 -137.844437 -143.776398 -82.476318 -145.695389 137.872513
[Rope3_Seg01]
26 -0.000007 -0.000410 -0.000153 -176.578796 -46.476627 -26.950987 0.000438
27 -0.000007 -0.000423 -0.000153 -173.997742 -50.094418 -32.278786 0.000450
[Rope3_Seg02]
26 139.999924 -0.000119 0.000060 5.302945 -3.541158 4.797470 139.999924
27 139.999924 -0.000119 0.000060 6.328318 -6.523095 3.670042 139.999924
[Rope3_Seg03]
26 139.999924 -0.000119 0.000119 3.729142 -0.704482 7.213151 139.999924
27 139.999924 -0.000119 0.000119 4.553674 -2.917468 6.330548 139.999924
[Rope3_Seg04]
26 139.999924 0.000119 0.000000 1.452838 3.765462 9.239220 139.999924
27 139.999924 0.000119 0.000000 2.178813 0.304295 6.486009 139.999924
[Rope3_Seg05]
26 139.999924 -0.000238 0.000060 9.575005 -17.349861 -7.132463 139.999924
27 139.999924 -0.000238 0.000060 10.558359 -16.957720 -6.368247 139.999924
[Rope3_Seg06]
26 139.999893 -0.000119 -0.000060 83.702675 -47.356979 -23.275707 139.999893
27 139.999893 -0.000119 -0.000060 74.918396 -44.641899 -16.675262 139.999893
[Rope3_Seg07]
26 139.999771 0.000060 -0.000119 24.068869 -11.141289 16.757193 139.999771
27 139.999771 0.000060 -0.000119 24.923777 -12.523633 17.894512 139.999771
[Rope3_Seg08]
26 139.999985 -0.000060 0.000000 5.921154 -1.136180 7.689618 139.999985
27 139.999985 -0.000060 0.000000 6.212254 -1.344472 8.679788 139.999985
[Rope3_Seg09]
26 90.185997 -0.000179 -0.000060 89.793228 -1.359877 -0.847183 90.185997
27 90.185997 -0.000179 -0.000060 89.793228 -1.359877 -0.847183 90.185997
[R_rear_hand01]
26 103.366196 -6.073594 -10.757982 -177.714203 24.565960 -73.910950 104.101845
27 103.366196 -6.073594 -10.757982 -177.714203 24.565960 -73.910950 104.101845
[R_rear_hand02]
26 100.509819 12.039542 -7.992327 -12.874829 36.868488 72.167213 101.543350
27 100.509819 12.039542 -7.992327 -12.874831 36.868481 72.167213 101.543350
[R_rear_hand03]
26 101.539970 5.215704 5.435467 71.484581 -71.816628 21.513813 101.819031
27 101.539970 5.215704 5.435467 71.484581 -71.816612 21.513800 101.819031
[Rope4_Seg01]
26 0.000000 -0.000777 -0.000248 65.762978 -30.927835 -132.407501 0.000816
27 0.000000 -0.000807 -0.000252 61.003002 -27.928085 -126.196228 0.000845
[Rope4_Seg02]
26 139.999985 0.000060 0.000119 1.474796 -10.492954 -3.541553 139.999985
27 139.999985 0.000060 0.000119 0.986003 -12.508883 -5.387242 139.999985
[Rope4_Seg03]
26 139.999924 0.000000 -0.000238 9.651079 -19.272314 -3.568732 139.999924
27 139.999924 0.000000 -0.000238 7.888411 -21.770987 -6.390217 139.999924
[Rope4_Seg04]
26 139.999985 0.000000 0.000119 108.758255 -30.527695 -4.527877 139.999985
27 139.999985 0.000000 0.000119 81.982254 -24.812134 -6.601139 139.999985
[Rope4_Seg05]
26 139.999802 -0.000060 -0.000119 61.210979 -9.858660 58.559708 139.999802
27 139.999802 -0.000060 -0.000119 91.483887 -38.879086 45.957069 139.999802
[Rope4_Seg06]
26 139.999924 0.000000 0.000060 2.254497 14.230348 9.690442 139.999924
27 139.999924 0.000000 0.000060 3.340639 21.582870 12.815272 139.999924
[Rope4_Seg07]
26 139.999802 0.000000 0.000000 0.389443 5.242135 3.168656 139.999802
27 139.999802 0.000000 0.000000 0.377963 6.976108 3.488694 139.999802
[Rope4_Seg08]
26 139.999924 0.000000 0.000119 -1.394906 2.523157 1.509583 139.999924
27 139.999924 0.000000 0.000119 -1.404055 3.197102 1.580518 139.999924
[Rope4_Seg09]
26 90.185791 0.000060 0.000060 -135.617828 2.228885 0.850567 90.185791
27 90.185791 0.000060 0.000060 -135.617828 2.228885 0.850567 90.185791
[L_rear_hand01]
26 101.696655 -8.392275 -7.654577 -12.874829 -36.868488 107.832764 102.329041
27 101.696655 -8.392275 -7.654577 -12.874829 -36.868488 107.832764 102.329041
[L_rear_hand02]
26 102.726799 -1.568258 5.773216 71.484581 71.816628 158.486160 102.900848
27 102.726799 -1.568258 5.773216 71.484581 71.816628 158.486160 102.900848
[L_rear_hand03]
26 104.552910 9.721220 -10.420293 -177.714203 -24.565960 -106.089035 105.519653
27 104.552910 9.721220 -10.420293 -177.714203 -24.565960 -106.089035 105.519653
